<svg version="1.1" viewBox="0.0 0.0 674.3674540682415 584.0761154855643" fill="none" stroke="none" stroke-linecap="square" stroke-miterlimit="10" xmlns:xlink="http://www.w3.org/1999/xlink" xmlns="http://www.w3.org/2000/svg"><clipPath id="p.0"><path d="m0 0l674.36743 0l0 584.0761l-674.36743 0l0 -584.0761z" clip-rule="nonzero"/></clipPath><g clip-path="url(#p.0)"><path fill="#000000" fill-opacity="0.0" d="m0 0l674.36743 0l0 584.0761l-674.36743 0z" fill-rule="evenodd"/><path fill="#efefef" d="m137.48557 193.16714l0 0c0 -84.73875 110.49048 -153.43307 246.78741 -153.43307l0 0c136.2969 0 246.78738 68.69433 246.78738 153.43307l0 0c0 84.73874 -110.49048 153.43307 -246.78738 153.43307l0 0c-136.29694 0 -246.78741 -68.694336 -246.78741 -153.43307z" fill-rule="evenodd"/><path stroke="#000000" stroke-width="16.0" stroke-linejoin="round" stroke-linecap="butt" d="m137.48557 193.16714l0 0c0 -84.73875 110.49048 -153.43307 246.78741 -153.43307l0 0c136.2969 0 246.78738 68.69433 246.78738 153.43307l0 0c0 84.73874 -110.49048 153.43307 -246.78738 153.43307l0 0c-136.29694 0 -246.78741 -68.694336 -246.78741 -153.43307z" fill-rule="evenodd"/><path fill="#ff9900" d="m472.15747 180.2343l0 0c0 -25.492065 35.570465 -46.157486 79.44885 -46.157486l0 0c43.878357 0 79.44879 20.66542 79.44879 46.157486l0 0c0 25.492065 -35.570435 46.157486 -79.44879 46.157486l0 0c-43.878387 0 -79.44885 -20.66542 -79.44885 -46.157486z" fill-rule="evenodd"/><path stroke="#000000" stroke-width="1.0" stroke-linejoin="round" stroke-linecap="butt" d="m472.15747 180.2343l0 0c0 -25.492065 35.570465 -46.157486 79.44885 -46.157486l0 0c43.878357 0 79.44879 20.66542 79.44879 46.157486l0 0c0 25.492065 -35.570435 46.157486 -79.44879 46.157486l0 0c-43.878387 0 -79.44885 -20.66542 -79.44885 -46.157486z" fill-rule="evenodd"/><path fill="#93c47d" d="m419.26773 272.54465l0 0c0 -25.49208 35.570435 -46.157486 79.44879 -46.157486l0 0c43.878387 0 79.44882 20.665405 79.44882 46.157486l0 0c0 25.492065 -35.570435 46.15747 -79.44882 46.15747l0 0c-43.878357 0 -79.44879 -20.665405 -79.44879 -46.15747z" fill-rule="evenodd"/><path stroke="#000000" stroke-width="1.0" stroke-linejoin="round" stroke-linecap="butt" d="m419.26773 272.54465l0 0c0 -25.49208 35.570435 -46.157486 79.44879 -46.157486l0 0c43.878387 0 79.44882 20.665405 79.44882 46.157486l0 0c0 25.492065 -35.570435 46.15747 -79.44882 46.15747l0 0c-43.878357 0 -79.44879 -20.665405 -79.44879 -46.15747z" fill-rule="evenodd"/><path fill="#393b3c" fill-opacity="0.5696" d="m249.64305 284.8348l0 0c0 -25.492065 35.57045 -46.15747 79.44881 -46.15747l0 0c43.878387 0 79.44882 20.665405 79.44882 46.15747l0 0c0 25.492065 -35.570435 46.15747 -79.44882 46.15747l0 0c-43.878357 0 -79.44881 -20.665405 -79.44881 -46.15747z" fill-rule="evenodd"/><path stroke="#000000" stroke-width="1.0" stroke-linejoin="round" stroke-linecap="butt" d="m249.64305 284.8348l0 0c0 -25.492065 35.57045 -46.15747 79.44881 -46.15747l0 0c43.878387 0 79.44882 20.665405 79.44882 46.15747l0 0c0 25.492065 -35.570435 46.15747 -79.44882 46.15747l0 0c-43.878357 0 -79.44881 -20.665405 -79.44881 -46.15747z" fill-rule="evenodd"/><path fill="#ffffff" d="m198.14174 119.66402l0 0c0 -25.492073 35.570435 -46.15748 79.44881 -46.15748l0 0c43.878387 0 79.44882 20.665405 79.44882 46.15748l0 0c0 25.492065 -35.570435 46.157486 -79.44882 46.157486l0 0c-43.878372 0 -79.44881 -20.66542 -79.44881 -46.157486z" fill-rule="evenodd"/><path stroke="#000000" stroke-width="1.0" stroke-linejoin="round" stroke-linecap="butt" d="m198.14174 119.66402l0 0c0 -25.492073 35.570435 -46.15748 79.44881 -46.15748l0 0c43.878387 0 79.44882 20.665405 79.44882 46.15748l0 0c0 25.492065 -35.570435 46.157486 -79.44882 46.157486l0 0c-43.878372 0 -79.44881 -20.66542 -79.44881 -46.157486z" fill-rule="evenodd"/><path fill="#b45f06" d="m154.3622 207.70055l0 0c0 -25.492065 35.57045 -46.15747 79.44882 -46.15747l0 0c43.878372 0 79.44884 20.665405 79.44884 46.15747l0 0c0 25.49208 -35.570465 46.157486 -79.44884 46.157486l0 0c-43.878372 0 -79.44882 -20.665405 -79.44882 -46.157486z" fill-rule="evenodd"/><path stroke="#000000" stroke-width="1.0" stroke-linejoin="round" stroke-linecap="butt" d="m154.3622 207.70055l0 0c0 -25.492065 35.57045 -46.15747 79.44882 -46.15747l0 0c43.878372 0 79.44884 20.665405 79.44884 46.15747l0 0c0 25.49208 -35.570465 46.157486 -79.44884 46.157486l0 0c-43.878372 0 -79.44882 -20.665405 -79.44882 -46.157486z" fill-rule="evenodd"/><path fill="#000000" d="m313.25986 198.29787l0 0c0 -25.49208 35.570435 -46.157486 79.44879 -46.157486l0 0c43.878387 0 79.44882 20.665405 79.44882 46.157486l0 0c0 25.492065 -35.570435 46.15747 -79.44882 46.15747l0 0c-43.878357 0 -79.44879 -20.665405 -79.44879 -46.15747z" fill-rule="evenodd"/><path stroke="#000000" stroke-width="1.0" stroke-linejoin="round" stroke-linecap="butt" d="m313.25986 198.29787l0 0c0 -25.49208 35.570435 -46.157486 79.44879 -46.157486l0 0c43.878387 0 79.44882 20.665405 79.44882 46.157486l0 0c0 25.492065 -35.570435 46.15747 -79.44882 46.15747l0 0c-43.878357 0 -79.44879 -20.665405 -79.44879 -46.15747z" fill-rule="evenodd"/><path fill="#ff0000" d="m364.26773 110.90583l0 0c0 -25.492073 35.570435 -46.157486 79.44879 -46.157486l0 0c43.878387 0 79.44882 20.665413 79.44882 46.157486l0 0c0 25.492073 -35.570435 46.15748 -79.44882 46.15748l0 0c-43.878357 0 -79.44879 -20.665405 -79.44879 -46.15748z" fill-rule="evenodd"/><path stroke="#000000" stroke-width="1.0" stroke-linejoin="round" stroke-linecap="butt" d="m364.26773 110.90583l0 0c0 -25.492073 35.570435 -46.157486 79.44879 -46.157486l0 0c43.878387 0 79.44882 20.665413 79.44882 46.157486l0 0c0 25.492073 -35.570435 46.15748 -79.44882 46.15748l0 0c-43.878357 0 -79.44879 -20.665405 -79.44879 -46.15748z" fill-rule="evenodd"/><path fill="#000000" fill-opacity="0.0" d="m21.16273 180.23885l0 0c0 -84.73875 110.490486 -153.43307 246.7874 -153.43307l0 0c136.2969 0 246.78741 68.69432 246.78741 153.43307l0 0c0 84.738754 -110.49051 153.43306 -246.78741 153.43306l0 0c-136.29692 0 -246.7874 -68.694305 -246.7874 -153.43306z" fill-rule="evenodd"/><path stroke="#000000" stroke-width="16.0" stroke-linejoin="round" stroke-linecap="butt" d="m21.16273 180.23885l0 0c0 -84.73875 110.490486 -153.43307 246.7874 -153.43307l0 0c136.2969 0 246.78741 68.69432 246.78741 153.43307l0 0c0 84.738754 -110.49051 153.43306 -246.78741 153.43306l0 0c-136.29692 0 -246.7874 -68.694305 -246.7874 -153.43306z" fill-rule="evenodd"/><path fill="#000000" fill-opacity="0.0" d="m42.46982 180.22932l0 0c0 -76.2066 100.95097 -137.98425 225.48032 -137.98425l0 0c124.52933 0 225.48032 61.777657 225.48032 137.98425l0 0c0 76.20659 -100.95099 137.98424 -225.48032 137.98424l0 0c-124.52934 0 -225.48032 -61.77765 -225.48032 -137.98424z" fill-rule="evenodd"/><path stroke="#000000" stroke-width="8.0" stroke-linejoin="round" stroke-linecap="butt" d="m42.46982 180.22932l0 0c0 -76.2066 100.95097 -137.98425 225.48032 -137.98425l0 0c124.52933 0 225.48032 61.777657 225.48032 137.98425l0 0c0 76.20659 -100.95099 137.98424 -225.48032 137.98424l0 0c-124.52934 0 -225.48032 -61.77765 -225.48032 -137.98424z" fill-rule="evenodd"/><path fill="#000000" fill-opacity="0.0" d="m176.96326 388.02887l320.44095 0l0 187.46454l-320.44095 0z" fill-rule="evenodd"/><path fill="#990000" d="m196.4945 463.58887q-1.515625 0 -2.5625 -1.03125q-1.03125 -1.046875 -1.03125 -2.578125l0 -46.9375q0 -1.59375 1.03125 -2.59375q1.046875 -1.0 2.5625 -1.0l13.875 0q5.203125 0 9.21875 2.296875q4.015625 2.28125 6.265625 6.34375q2.265625 4.046875 2.265625 9.3125q0 5.0625 -2.265625 9.015625q-2.25 3.953125 -6.265625 6.171875q-4.015625 2.21875 -9.21875 2.21875l-10.265625 0l0 15.171875q0 1.53125 -1.015625 2.578125q-1.0 1.03125 -2.59375 1.03125zm3.609375 -25.4375l10.265625 0q3.1875 0 5.609375 -1.390625q2.4375 -1.390625 3.8125 -3.8125q1.390625 -2.421875 1.390625 -5.546875q0 -3.328125 -1.390625 -5.859375q-1.375 -2.53125 -3.8125 -3.984375q-2.421875 -1.453125 -5.609375 -1.453125l-10.265625 0l0 22.046875zm49.710968 25.71875q-5.0625 0 -9.09375 -2.53125q-4.015625 -2.53125 -6.34375 -6.859375q-2.3125 -4.34375 -2.3125 -9.8125q0 -5.484375 2.53125 -9.84375q2.53125 -4.375 6.859375 -6.90625q4.34375 -2.53125 9.75 -2.53125q5.40625 0 9.703125 2.53125q4.296875 2.53125 6.828125 6.90625q2.53125 4.359375 2.53125 9.84375l-2.703125 0q0 5.46875 -2.328125 9.8125q-2.3125 4.328125 -6.34375 6.859375q-4.015625 2.53125 -9.078125 2.53125zm1.390625 -6.25q3.53125 0 6.296875 -1.6875q2.78125 -1.703125 4.375 -4.640625q1.59375 -2.953125 1.59375 -6.625q0 -3.75 -1.59375 -6.6875q-1.59375 -2.953125 -4.375 -4.640625q-2.765625 -1.703125 -6.296875 -1.703125q-3.46875 0 -6.28125 1.703125q-2.8125 1.6875 -4.4375 4.640625q-1.625 2.9375 -1.625 6.6875q0 3.671875 1.625 6.625q1.625 2.9375 4.4375 4.640625q2.8125 1.6875 6.28125 1.6875zm15.53125 6.03125q-1.53125 0 -2.546875 -1.0q-1.0 -1.0 -1.0 -2.53125l0 -10.609375l1.328125 -7.34375l5.75 2.5l0 15.453125q0 1.53125 -1.015625 2.53125q-1.0 1.0 -2.515625 1.0zm46.093323 0q-1.515625 0 -2.53125 -1.0q-1.0 -1.0 -1.0 -2.53125l0 -17.046875q0 -3.953125 -1.453125 -6.453125q-1.453125 -2.5 -3.921875 -3.703125q-2.453125 -1.21875 -5.65625 -1.21875q-2.90625 0 -5.265625 1.1875q-2.359375 1.171875 -3.75 3.15625q-1.375 1.96875 -1.375 4.53125l-4.375 0q0 -4.375 2.109375 -7.796875q2.125 -3.4375 5.796875 -5.4375q3.671875 -2.015625 8.25 -2.015625q4.78125 0 8.5625 2.046875q3.78125 2.046875 5.96875 6.0q2.1875 3.9375 2.1875 9.703125l0 17.046875q0 1.53125 -1.015625 2.53125q-1.0 1.0 -2.53125 1.0zm-28.484375 0q-1.53125 0 -2.546875 -1.0q-1.0 -1.0 -1.0 -2.53125l0 -30.921875q0 -1.59375 1.0 -2.5625q1.015625 -0.96875 2.546875 -0.96875q1.59375 0 2.5625 0.96875q0.96875 0.96875 0.96875 2.5625l0 30.921875q0 1.53125 -0.96875 2.53125q-0.96875 1.0 -2.5625 1.0zm57.53174 -0.0625q-3.46875 0 -6.25 -1.765625q-2.765625 -1.765625 -4.359375 -4.8125q-1.59375 -3.0625 -1.59375 -6.875l0 -33.0625q0 -1.53125 0.96875 -2.5q0.984375 -0.96875 2.5 -0.96875q1.53125 0 2.5 0.96875q0.96875 0.96875 0.96875 2.5l0 33.0625q0 2.78125 1.515625 4.65625q1.53125 1.859375 3.75 1.859375l2.359375 0q1.25 0 2.109375 0.984375q0.875 0.96875 0.875 2.484375q0 1.53125 -1.140625 2.5q-1.140625 0.96875 -2.953125 0.96875l-1.25 0zm-15.390625 -30.578125q-1.453125 0 -2.359375 -0.828125q-0.890625 -0.828125 -0.890625 -2.078125q0 -1.390625 0.890625 -2.21875q0.90625 -0.828125 2.359375 -0.828125l16.015625 0q1.453125 0 2.359375 0.828125q0.90625 0.828125 0.90625 2.21875q0 1.25 -0.90625 2.078125q-0.90625 0.828125 -2.359375 0.828125l-16.015625 0zm32.800537 6.875q0 -4.171875 2.046875 -7.453125q2.046875 -3.296875 5.5 -5.234375q3.46875 -1.953125 7.625 -1.953125q4.171875 0 6.203125 1.359375q2.046875 1.34375 1.5625 3.21875q-0.203125 0.96875 -0.796875 1.5q-0.578125 0.515625 -1.34375 0.65625q-0.765625 0.140625 -1.671875 -0.078125q-4.4375 -0.890625 -7.96875 -0.125q-3.53125 0.75 -5.578125 2.828125q-2.046875 2.078125 -2.046875 5.28125l-3.53125 0zm0.0625 23.703125q-1.65625 0 -2.5625 -0.859375q-0.90625 -0.875 -0.90625 -2.609375l0 -30.984375q0 -1.671875 0.90625 -2.5625q0.90625 -0.90625 2.5625 -0.90625q1.734375 0 2.59375 0.875q0.875 0.859375 0.875 2.59375l0 30.984375q0 1.671875 -0.875 2.578125q-0.859375 0.890625 -2.59375 0.890625zm37.021576 16.640625q-0.6875 0 -1.65625 -0.421875q-3.0625 -1.375 -1.671875 -4.359375l21.140625 -47.765625q1.390625 -2.921875 4.375 -1.671875q3.125 1.3125 1.734375 4.375l-21.21875 47.6875q-0.828125 2.15625 -2.703125 2.15625zm8.1875 -18.171875q-1.328125 0.5625 -2.46875 0.109375q-1.140625 -0.453125 -1.828125 -1.765625l-15.875 -30.15625q-0.703125 -1.3125 -0.1875 -2.53125q0.53125 -1.21875 1.84375 -1.765625q1.3125 -0.5625 2.484375 -0.109375q1.1875 0.453125 1.8125 1.765625l15.1875 30.15625q0.6875 1.328125 0.515625 2.546875q-0.171875 1.203125 -1.484375 1.75z" fill-rule="nonzero"/><path fill="#990000" d="m210.08826 547.4764q-4.4375 0 -8.46875 -1.375q-4.015625 -1.390625 -7.0 -3.890625q-2.96875 -2.5 -4.359375 -5.75q-0.6875 -1.453125 0.03125 -2.703125q0.734375 -1.25 2.46875 -1.59375q1.25 -0.28125 2.453125 0.375q1.21875 0.65625 1.84375 1.984375q0.828125 1.734375 2.734375 3.1875q1.90625 1.453125 4.609375 2.359375q2.703125 0.890625 5.6875 0.890625q3.328125 0 6.125 -1.03125q2.8125 -1.046875 4.546875 -3.015625q1.734375 -1.984375 1.734375 -4.890625q0 -3.671875 -2.875 -6.578125q-2.875 -2.921875 -9.453125 -3.609375q-8.609375 -0.84375 -13.53125 -5.0625q-4.921875 -4.234375 -4.921875 -10.46875q0 -4.578125 2.5625 -7.765625q2.578125 -3.1875 6.96875 -4.84375q4.40625 -1.671875 9.8125 -1.671875q4.234375 0 7.390625 1.1875q3.15625 1.171875 5.5 3.25q2.359375 2.078125 4.09375 4.921875q0.96875 1.515625 0.796875 2.875q-0.171875 1.34375 -1.34375 2.109375q-1.328125 0.828125 -2.859375 0.34375q-1.515625 -0.484375 -2.28125 -1.796875q-1.109375 -2.015625 -2.703125 -3.390625q-1.59375 -1.390625 -3.75 -2.1875q-2.140625 -0.796875 -5.046875 -0.796875q-5.125 -0.078125 -8.59375 1.90625q-3.46875 1.96875 -3.46875 6.0625q0 2.078125 1.0625 3.984375q1.078125 1.90625 3.953125 3.296875q2.890625 1.390625 8.296875 1.9375q8.25 0.828125 12.859375 5.03125q4.609375 4.1875 4.609375 11.0625q0 3.953125 -1.640625 6.859375q-1.625 2.90625 -4.359375 4.890625q-2.734375 1.96875 -6.234375 2.9375q-3.5 0.96875 -7.25 0.96875zm43.60396 -0.6875q-3.46875 0 -6.25 -1.765625q-2.765625 -1.765625 -4.359375 -4.8125q-1.59375 -3.0625 -1.59375 -6.875l0 -33.0625q0 -1.53125 0.96875 -2.5q0.984375 -0.96875 2.5 -0.96875q1.53125 0 2.5 0.96875q0.96875 0.96875 0.96875 2.5l0 33.0625q0 2.78125 1.515625 4.65625q1.53125 1.859375 3.75 1.859375l2.3593597 0q1.25 0 2.109375 0.984375q0.875 0.96875 0.875 2.484375q0 1.53125 -1.140625 2.5q-1.140625 0.96875 -2.9531097 0.96875l-1.25 0zm-15.390625 -30.578125q-1.453125 0 -2.359375 -0.828125q-0.890625 -0.828125 -0.890625 -2.078125q0 -1.390625 0.890625 -2.21875q0.90625 -0.828125 2.359375 -0.828125l16.015625 0q1.453125 0 2.3593597 0.828125q0.90625 0.828125 0.90625 2.21875q0 1.25 -0.90625 2.078125q-0.90623474 0.828125 -2.3593597 0.828125l-16.015625 0zm46.597427 30.859375q-5.625 0 -9.921875 -2.453125q-4.296875 -2.46875 -6.765625 -6.796875q-2.453125 -4.34375 -2.453125 -9.953125q0 -5.6875 2.453125 -10.015625q2.46875 -4.34375 6.765625 -6.796875q4.296875 -2.46875 9.921875 -2.46875q5.546875 0 9.84375 2.46875q4.296875 2.453125 6.75 6.796875q2.46875 4.328125 2.46875 10.015625q0 5.609375 -2.4375 9.953125q-2.421875 4.328125 -6.71875 6.796875q-4.296875 2.453125 -9.90625 2.453125zm0 -6.25q3.59375 0 6.359375 -1.65625q2.78125 -1.671875 4.34375 -4.578125q1.5625 -2.90625 1.5625 -6.71875q0 -3.8125 -1.5625 -6.75q-1.5625 -2.953125 -4.34375 -4.609375q-2.765625 -1.671875 -6.359375 -1.671875q-3.609375 0 -6.390625 1.671875q-2.765625 1.65625 -4.359375 4.609375q-1.59375 2.9375 -1.59375 6.75q0 3.8125 1.59375 6.71875q1.59375 2.90625 4.359375 4.578125q2.78125 1.65625 6.390625 1.65625zm46.796448 6.25q-5.546875 0 -9.890625 -2.53125q-4.328125 -2.53125 -6.796875 -6.859375q-2.453125 -4.34375 -2.453125 -9.8125q0 -5.625 2.421875 -9.984375q2.4375 -4.375 6.65625 -6.828125q4.234375 -2.46875 9.71875 -2.46875q4.078125 0 7.46875 1.5625q3.40625 1.5625 6.109375 4.6875q0.96875 1.109375 0.6875 2.28125q-0.265625 1.171875 -1.515625 2.078125q-0.96875 0.6875 -2.15625 0.453125q-1.171875 -0.25 -2.140625 -1.21875q-3.40625 -3.59375 -8.453125 -3.59375q-3.546875 0 -6.25 1.625q-2.703125 1.625 -4.234375 4.546875q-1.515625 2.90625 -1.515625 6.859375q0 3.734375 1.5625 6.65625q1.5625 2.90625 4.328125 4.609375q2.78125 1.6875 6.453125 1.6875q2.421875 0 4.25 -0.578125q1.84375 -0.59375 3.375 -1.84375q1.109375 -0.90625 2.28125 -1.0q1.1875 -0.109375 2.078125 0.65625q1.1875 0.96875 1.3125 2.1875q0.140625 1.203125 -0.828125 2.171875q-4.984375 4.65625 -12.46875 4.65625zm31.119293 -14.140625l-4.296875 -4.71875l21.28125 -19.0q1.046875 -0.96875 2.328125 -0.890625q1.28125 0.0625 2.1875 1.09375q0.96875 1.046875 0.890625 2.296875q-0.0625 1.25 -1.109375 2.21875l-21.28125 19.0zm-3.25 13.859375q-1.53125 0 -2.46875 -0.9375q-0.9375 -0.9375 -0.9375 -2.453125l0 -47.359375q0 -1.515625 0.9375 -2.453125q0.9375 -0.9375 2.46875 -0.9375q1.515625 0 2.453125 0.9375q0.9375 0.9375 0.9375 2.453125l0 47.359375q0 1.515625 -0.9375 2.453125q-0.9375 0.9375 -2.453125 0.9375zm24.75 -0.34375q-1.109375 0.890625 -2.46875 0.78125q-1.34375 -0.09375 -2.25 -1.203125l-14.078125 -17.390625l4.859375 -4.578125l14.421875 17.75q0.890625 1.109375 0.78125 2.390625q-0.09375 1.28125 -1.265625 2.25zm25.652893 0.625q-5.765625 0 -10.234375 -2.453125q-4.46875 -2.46875 -7.0 -6.796875q-2.53125 -4.34375 -2.53125 -9.953125q0 -5.6875 2.390625 -10.015625q2.390625 -4.34375 6.625 -6.796875q4.234375 -2.46875 9.703125 -2.46875q5.40625 0 9.28125 2.390625q3.890625 2.390625 5.9375 6.59375q2.046875 4.1875 2.046875 9.671875q0 1.3125 -0.90625 2.1875q-0.890625 0.859375 -2.28125 0.859375l-27.9375 0l0 -5.546875l27.71875 0l-2.828125 1.9375q-0.078125 -3.46875 -1.390625 -6.203125q-1.3125 -2.734375 -3.75 -4.328125q-2.421875 -1.59375 -5.890625 -1.59375q-3.953125 0 -6.765625 1.734375q-2.796875 1.734375 -4.265625 4.75q-1.453125 3.015625 -1.453125 6.828125q0 3.8125 1.734375 6.796875q1.734375 2.96875 4.78125 4.703125q3.0625 1.734375 7.015625 1.734375q2.140625 0 4.390625 -0.796875q2.265625 -0.796875 3.640625 -1.828125q1.046875 -0.765625 2.25 -0.796875q1.21875 -0.046875 2.125 0.71875q1.171875 1.046875 1.234375 2.296875q0.078125 1.234375 -1.09375 2.140625q-2.359375 1.875 -5.859375 3.0625q-3.5 1.171875 -6.6875 1.171875zm28.63086 -23.984375q0 -4.171875 2.046875 -7.453125q2.046875 -3.296875 5.5 -5.234375q3.46875 -1.953125 7.625 -1.953125q4.171875 0 6.203125 1.359375q2.046875 1.34375 1.5625 3.21875q-0.203125 0.96875 -0.796875 1.5q-0.578125 0.515625 -1.34375 0.65625q-0.765625 0.140625 -1.671875 -0.078125q-4.4375 -0.890625 -7.96875 -0.125q-3.53125 0.75 -5.578125 2.828125q-2.046875 2.078125 -2.046875 5.28125l-3.53125 0zm0.0625 23.703125q-1.65625 0 -2.5625 -0.859375q-0.90625 -0.875 -0.90625 -2.609375l0 -30.984375q0 -1.671875 0.90625 -2.5625q0.90625 -0.90625 2.5625 -0.90625q1.734375 0 2.59375 0.875q0.875 0.859375 0.875 2.59375l0 30.984375q0 1.671875 -0.875 2.578125q-0.859375 0.890625 -2.59375 0.890625z" fill-rule="nonzero"/></g></svg>